<?xml version="1.0" encoding="UTF-8" standalone="no"?>
<!-- Created with Inkscape (http://www.inkscape.org/) -->

<svg
   width="153.91522mm"
   height="177.59019mm"
   viewBox="0 0 153.91522 177.59019"
   version="1.1"
   id="svg1"
   xml:space="preserve"
   xmlns="http://www.w3.org/2000/svg"
   xmlns:svg="http://www.w3.org/2000/svg"><defs
     id="defs1" /><g
     id="layer1"
     transform="translate(278.712,-553.48152)"><path
       d="m -201.75518,617.08122 c -1.22433,0 -2.42794,0.0866 -3.60495,0.25424 -7.08286,1.00918 -13.20386,4.95003 -17.10076,10.55957 -1.08034,1.55513 -1.98955,3.23871 -2.70113,5.02346 -1.15283,2.89149 -1.78645,6.04893 -1.78645,9.35809 0,3.84511 0.85544,7.4855 2.38693,10.74146 0.81634,1.73555 1.82442,3.36189 2.99775,4.8519 4.20441,5.33914 10.52645,8.92716 17.71572,9.51467 0.68996,0.0564 1.38806,0.0853 2.09289,0.0853 1.22464,0 2.42816,-0.087 3.60547,-0.25476 7.08313,-1.00927 13.20512,-4.94963 17.10231,-10.55905 1.08012,-1.55467 1.9891,-3.2372 2.70061,-5.0214 1.15302,-2.89134 1.78697,-6.04891 1.78697,-9.35808 0,-3.84576 -0.85627,-7.48693 -2.38848,-10.74353 -0.81621,-1.73479 -1.82434,-3.36033 -2.99724,-4.84984 -4.20472,-5.33973 -10.52701,-8.92885 -17.71623,-9.51673 -0.69029,-0.0564 -1.38824,-0.0853 -2.09341,-0.0853 z m -7.54476,9.8826 a 2.5002501,2.5002501 0 0 1 0.34365,0.005 2.5002501,2.5002501 0 0 1 1.03043,0.32091 l 3.51968,2.0314 3.62975,2.09548 5.50871,3.18016 c 0.0601,-0.0216 0.12016,-0.0432 0.18035,-0.0646 -0.0588,0.0209 -0.11745,0.0434 -0.1757,0.0672 l 9.55962,5.51852 a 2.5002501,2.5002501 0 0 1 0.80822,3.57808 2.5002501,2.5002501 0 0 1 -0.79478,0.74104 l -3.51193,2.02882 -3.63957,2.10323 -5.50923,3.18275 c -0.0103,0.0571 -0.021,0.11405 -0.0315,0.17105 0.0103,-0.0558 0.0194,-0.11238 0.0274,-0.16898 l -9.55962,5.52317 a 2.5002501,2.5002501 0 0 1 -3.5202,-1.10484 2.5002501,2.5002501 0 0 1 -0.23461,-1.05627 l 5.1e-4,-4.06073 v -4.21147 l 5.2e-4,-6.3624 c -0.0421,-0.0357 -0.0841,-0.0712 -0.12609,-0.10697 0.0412,0.0351 0.0833,0.0692 0.12609,0.10283 l 0.001,-11.0293 a 2.5002501,2.5002501 0 0 1 2.3673,-2.48408 z"
       style="baseline-shift:baseline;display:inline;overflow:visible;opacity:1;vector-effect:none;fill:#188754;fill-opacity:1;stroke-linecap:round;stroke-linejoin:round;paint-order:markers fill stroke;enable-background:accumulate;stop-color:#000000;stop-opacity:1"
       id="path90" /><path
       d="m -178.44239,661.44285 c -5.39532,6.54938 -13.49102,10.79599 -22.56451,11.01793 -1.80151,2.93432 -3.91047,5.64315 -6.19032,8.1995 -1.37972,1.52974 -2.84791,2.97418 -4.38423,4.34754 -5.05027,4.57538 -10.82793,8.35859 -17.2651,10.93008 1.14135,5.0424 2.9272,10.01577 5.65185,14.73502 5.23933,9.07477 12.78399,15.92231 21.43952,20.39876 8.65612,-4.47645 16.19998,-11.32361 21.43952,-20.39876 3.08663,-5.3462 5.12862,-10.99811 6.19497,-16.73231 2.06256,-11.09128 0.4704,-22.49459 -4.3217,-32.49776 z"
       style="baseline-shift:baseline;display:inline;overflow:visible;opacity:1;vector-effect:none;fill:#188754;fill-opacity:1;stroke-linecap:round;stroke-linejoin:round;paint-order:markers fill stroke;enable-background:accumulate;stop-color:#000000;stop-opacity:1"
       id="path89" /><path
       d="m -232.67939,692.04047 a 2.50025,2.50025 0 0 0 5.2e-4,-5.2e-4 c 10.63098,-3.75742 19.70393,-10.8321 25.96999,-19.97656 -8.79054,-1.45748 -16.3119,-6.72712 -20.80235,-14.04669 -3.45158,-0.0927 -6.86157,-0.56731 -10.2247,-1.26659 -2.00267,-0.42818 -3.97587,-0.97335 -5.92212,-1.61282 -6.49448,-2.08576 -12.66636,-5.19927 -18.11672,-9.49193 -3.79543,3.50931 -7.20741,7.54319 -9.93169,12.26179 -5.23929,9.07471 -7.39639,19.03146 -6.94532,28.76568 8.20454,5.2577 17.90648,8.36952 28.38484,8.36952 6.17318,0 12.08843,-1.05828 17.58755,-3.00188 z"
       style="baseline-shift:baseline;display:inline;overflow:visible;opacity:1;vector-effect:none;fill:#188754;fill-opacity:1;stroke-linecap:round;stroke-linejoin:round;paint-order:markers fill stroke;enable-background:accumulate;stop-color:#000000;stop-opacity:1"
       id="path88" /><path
       d="m -230.02684,652.87955 c -1.2422,-3.30047 -1.92184,-6.87407 -1.92184,-10.60297 0,-5.22632 1.33545,-10.14765 3.68298,-14.43995 -1.64216,-3.02982 -2.93479,-6.21357 -4.00958,-9.46919 -0.63293,-1.95395 -1.14788,-3.94153 -1.56838,-5.9526 -1.44047,-6.66668 -1.83013,-13.56788 -0.83767,-20.4339 -4.93694,-1.53234 -10.13705,-2.47013 -15.58561,-2.47013 -10.47871,0 -20.18241,3.10979 -28.3869,8.36744 -0.45113,9.7343 1.70791,19.69221 6.94738,28.76724 3.08661,5.34617 6.95987,9.93989 11.39258,13.73043 8.56974,7.32817 19.23424,11.64932 30.28704,12.50363 z"
       style="baseline-shift:baseline;display:inline;overflow:visible;opacity:1;vector-effect:none;fill:#188754;fill-opacity:1;stroke-linecap:round;stroke-linejoin:round;paint-order:markers fill stroke;enable-background:accumulate;stop-color:#000000;stop-opacity:1"
       id="path87" /><path
       d="m -229.38812,590.61255 c -2.06257,11.09135 -0.46989,22.49294 4.32222,32.49569 5.39503,-6.54963 13.48997,-10.79632 22.56348,-11.01793 1.80324,-2.93684 3.91453,-5.6479 6.19704,-8.20622 1.37658,-1.52568 2.84098,-2.96606 4.37337,-4.33617 5.05163,-4.57748 10.83084,-8.36248 17.26975,-10.93473 -1.14145,-5.04177 -2.92908,-10.01428 -5.6534,-14.73295 -5.23956,-9.07519 -12.78344,-15.92229 -21.43952,-20.39876 -8.65548,4.47647 -16.20017,11.32395 -21.43952,20.39876 -3.08662,5.34619 -5.12707,10.99811 -6.19342,16.73231 z"
       style="baseline-shift:baseline;display:inline;overflow:visible;opacity:1;vector-effect:none;fill:#188754;fill-opacity:1;stroke-linecap:round;stroke-linejoin:round;paint-order:markers fill stroke;enable-background:accumulate;stop-color:#000000;stop-opacity:1"
       id="path86" /><path
       d="m -170.82942,592.51269 c -10.63032,3.75719 -19.70462,10.83141 -25.97102,19.97501 8.79045,1.45799 16.31217,6.72823 20.80286,14.04824 3.44589,0.0926 6.85051,0.56529 10.20816,1.26245 2.01251,0.4296 3.99502,0.97815 5.95055,1.62109 6.48987,2.08602 12.65721,5.19844 18.10432,9.48883 3.79588,-3.50953 7.20766,-7.54376 9.93221,-12.26282 5.23944,-9.07498 7.39649,-19.03286 6.94531,-28.76724 -8.20448,-5.25767 -17.9056,-8.36744 -28.38431,-8.36744 -6.17318,0 -12.08895,1.05828 -17.58808,3.00188 z"
       style="baseline-shift:baseline;display:inline;overflow:visible;opacity:1;vector-effect:none;fill:#188754;fill-opacity:1;stroke-linecap:round;stroke-linejoin:round;paint-order:markers fill stroke;enable-background:accumulate;stop-color:#000000;stop-opacity:1"
       id="path85" /><path
       d="m -168.82747,692.5717 c 4.93691,1.53233 10.1376,2.47065 15.58613,2.47065 10.4793,0 20.18151,-3.11119 28.38638,-8.36952 0.45107,-9.73421 -1.70797,-19.69075 -6.94738,-28.76568 -3.08664,-5.34622 -6.95982,-9.93987 -11.39259,-13.73043 -8.56942,-7.3279 -19.23518,-11.64976 -30.28807,-12.50466 1.24272,3.30104 1.92288,6.87504 1.92288,10.60452 0,5.22624 -1.33526,10.14692 -3.68298,14.43891 1.64229,3.02999 2.93471,6.21389 4.00957,9.46971 0.634,1.95716 1.1501,3.94796 1.57097,5.96242 1.43864,6.66372 1.82707,13.56134 0.83509,20.42408 z"
       style="baseline-shift:baseline;display:inline;overflow:visible;opacity:1;vector-effect:none;fill:#188754;fill-opacity:1;stroke-linecap:round;stroke-linejoin:round;paint-order:markers fill stroke;enable-background:accumulate;stop-color:#000000;stop-opacity:1"
       id="path84" /></g></svg>
